<svg xmlns="http://www.w3.org/2000/svg" viewBox="0 0 360 90" width="720" height="180">
  <defs>
    <linearGradient id="bg2" x1="0%" y1="0%" x2="100%" y2="0%">
      <stop offset="0%" stop-color="#0B1746"></stop>
      <stop offset="100%" stop-color="#00072E"></stop>
    </linearGradient>
    <linearGradient id="glass2" x1="50%" y1="0%" x2="50%" y2="100%">
      <stop offset="0%" stop-color="#FFFFFF" stop-opacity="0.16"></stop>
      <stop offset="45%" stop-color="#FFFFFF" stop-opacity="0.04"></stop>
      <stop offset="100%" stop-color="#FFFFFF" stop-opacity="0"></stop>
    </linearGradient>
    <radialGradient id="hotspot2" cx="20%" cy="15%" r="60%">
      <stop offset="0%" stop-color="#7BA8FF" stop-opacity="0.22"></stop>
      <stop offset="100%" stop-color="#7BA8FF" stop-opacity="0"></stop>
    </radialGradient>
  </defs>


  <rect width="360" height="90" rx="12" fill="url(#bg2)"></rect>
  <rect width="360" height="90" rx="12" fill="url(#hotspot2)"></rect>
  <rect width="360" height="90" rx="12" fill="url(#glass2)"></rect>

  
  <g transform="translate(40, 45)">
    <polygon points="-13,-19 13,-19 9,10 -9,10" fill="none" stroke="#FFFFFF" stroke-width="2.2" stroke-linejoin="round"></polygon>
    <line x1="-7" y1="2" x2="7" y2="2" stroke="#FFFFFF" stroke-width="1.2" opacity="0.3"></line>
    <polyline points="-13,-8 -21,-8 -21,5 -13,5" fill="none" stroke="#FFFFFF" stroke-width="2.2" stroke-linejoin="round" stroke-linecap="round"></polyline>
    <polyline points="13,-8 21,-8 21,5 13,5" fill="none" stroke="#FFFFFF" stroke-width="2.2" stroke-linejoin="round" stroke-linecap="round"></polyline>
    <line x1="-3" y1="10" x2="-3" y2="18" stroke="#FFFFFF" stroke-width="2" stroke-linecap="round"></line>
    <line x1="3" y1="10" x2="3" y2="18" stroke="#FFFFFF" stroke-width="2" stroke-linecap="round"></line>
    <line x1="-10" y1="18" x2="10" y2="18" stroke="#FFFFFF" stroke-width="2.5" stroke-linecap="round"></line>
    <circle cx="0" cy="-24" r="3.5" fill="#E31E24"></circle>
  </g>

  
  <line x1="72" y1="18" x2="72" y2="72" stroke="#FFFFFF" stroke-width="0.5" opacity="0.18"></line>

  
  
  

  
  <text x="220" y="58" font-family="&#39;Arial Black&#39;,&#39;Impact&#39;,&#39;Haettenschweiler&#39;,sans-serif" font-weight="900" font-size="52" letter-spacing="-1" text-anchor="middle" fill="#FFFFFF">TORN<tspan fill="#E31E24">Y</tspan></text>


  <text x="220" y="78" font-family="&#39;Arial&#39;,sans-serif" font-weight="400" font-size="9" letter-spacing="4" text-anchor="middle" fill="#FFFFFF" opacity="0.25">VOLLEYBALL TOURNAMENTS</text>

  
  <g stroke="#E31E24" stroke-width="1.8" fill="none" opacity="0.7" stroke-linecap="round">
    <path d="M6 22 L6 6 L22 6"></path>
    <path d="M338 6 L354 6 L354 22"></path>
    <path d="M6 68 L6 84 L22 84"></path>
    <path d="M338 84 L354 84 L354 68"></path>
  </g>

</svg>